<svg width="435" height="544" viewBox="0 0 435 544" fill="none" xmlns="http://www.w3.org/2000/svg">
<g clip-path="url(#clip0_30_73)">
<g filter="url(#filter0_d_30_73)">
<path d="M33 380.576C42.4396 385.961 52.8915 389.772 64 391.656V512.5H255C263.56 512.5 270.5 519.44 270.5 528C270.5 536.56 263.56 543.5 255 543.5H50.5C40.8351 543.5 33.0001 535.665 33 526V380.576ZM255 218C287.946 218 316.239 237.916 328.5 266.365V218.25C339.368 221.795 349.762 224.753 359.5 227.081V527C359.5 535.56 352.56 542.5 344 542.5C335.44 542.5 328.5 535.56 328.5 527V421.585C326.579 426.055 324.246 430.362 321.518 434.445C312.727 447.601 300.232 457.855 285.614 463.91C270.996 469.965 254.911 471.55 239.393 468.463C223.874 465.376 209.62 457.757 198.432 446.568L219.645 425.356C226.637 432.348 235.546 437.11 245.245 439.039C254.944 440.968 264.998 439.979 274.134 436.194C283.27 432.41 291.079 426.001 296.573 417.778C302.067 409.556 305 399.889 305 390V360.452C291.304 371.432 273.919 378 255 378C217.007 378 185.2 351.515 177.034 316H157.966C149.8 351.515 117.993 378 80 378C35.8173 378 6.59807e-05 342.183 0 298C0 253.817 35.8172 218 80 218C119.756 218 152.738 247 158.948 285H176.052C182.262 247 215.244 218 255 218ZM80 249C52.938 249 31 270.938 31 298C31.0001 325.062 52.9381 347 80 347C107.062 347 129 325.062 129 298C129 270.938 107.062 249 80 249ZM255 249C227.938 249 206 270.938 206 298C206 325.062 227.938 347 255 347C282.062 347 304 325.062 304 298C304 270.938 282.062 249 255 249ZM236.915 9.90052C254.256 4.36796 272.784 2.20719 291.442 3.5431C310.1 4.87903 328.523 9.68457 345.657 17.6857C362.791 25.6867 378.302 36.7269 391.304 50.1749C404.306 63.6231 414.544 79.2167 421.435 96.0646C428.325 112.912 431.732 130.686 431.462 148.368C431.242 162.729 428.6 176.801 423.657 190.059C430.83 199.506 433.542 207.636 430.76 213.594C421.061 234.36 348.294 220.886 268.229 183.498C188.163 146.11 131.117 98.9666 140.814 78.1993C143.597 72.2412 151.571 69.1013 163.419 68.5363C170.411 56.2354 179.504 45.1754 190.374 35.7882C203.758 24.2294 219.574 15.4331 236.915 9.90052ZM48.5 112C57.0604 112 64 118.94 64 127.5V204.343C52.8916 206.227 42.4395 210.039 33 215.423V127.5C33 118.94 39.9396 112 48.5 112ZM289.657 28.4796C274.081 27.3644 258.741 29.1774 244.513 33.7169C230.289 38.2549 217.47 45.422 206.715 54.7101C197.982 62.2523 190.72 71.0968 185.153 80.8898L178.354 92.8517L173.423 93.0861C176.867 96.6878 181.289 100.802 186.786 105.345C207.786 122.7 240.118 142.781 278.806 160.847C317.493 178.913 353.646 190.811 380.434 195.772C387.446 197.07 393.438 197.82 398.411 198.149L395.426 194.217L400.232 181.324C404.168 170.769 406.288 159.523 406.465 147.986C406.682 133.778 403.946 119.347 398.295 105.528C392.641 91.7046 384.186 78.7789 373.331 67.5519C362.814 56.6744 350.288 47.6423 336.425 40.9757L335.079 40.338C320.681 33.6145 305.236 29.5951 289.657 28.4796ZM143.782 112.5C149.343 118.952 156.377 125.62 164.49 132.324C168.933 135.996 173.764 139.731 178.944 143.5H130C121.44 143.5 114.5 136.56 114.5 128C114.5 119.44 121.44 112.5 130 112.5H143.782Z" fill="#7CFF54"/>
</g>
</g>
<defs>
<filter id="filter0_d_30_73" x="-4" y="3.15943" width="439.834" height="548.341" filterUnits="userSpaceOnUse" color-interpolation-filters="sRGB">
<feFlood flood-opacity="0" result="BackgroundImageFix"/>
<feColorMatrix in="SourceAlpha" type="matrix" values="0 0 0 0 0 0 0 0 0 0 0 0 0 0 0 0 0 0 127 0" result="hardAlpha"/>
<feOffset dy="4"/>
<feGaussianBlur stdDeviation="2"/>
<feComposite in2="hardAlpha" operator="out"/>
<feColorMatrix type="matrix" values="0 0 0 0 0 0 0 0 0 0 0 0 0 0 0 0 0 0 0.25 0"/>
<feBlend mode="normal" in2="BackgroundImageFix" result="effect1_dropShadow_30_73"/>
<feBlend mode="normal" in="SourceGraphic" in2="effect1_dropShadow_30_73" result="shape"/>
</filter>
<clipPath id="clip0_30_73">
<rect width="435" height="544" fill="white"/>
</clipPath>
</defs>
</svg>
