<svg width="1024" height="549" viewBox="0 0 1024 549" fill="none" xmlns="http://www.w3.org/2000/svg">
<g clip-path="url(#clip0_30_165)">
<path d="M8 381.635V217.057L53.5756 263.587L99.1511 217.057V381.635" stroke="#EFF0FF" stroke-width="15.1919" stroke-linecap="round" stroke-linejoin="round"/>
<path d="M207.11 217.057H131.151V296.748M131.151 296.748H159.003M131.151 296.748V381.635H207.11" stroke="#EFF0FF" stroke-width="15.1919" stroke-linecap="round" stroke-linejoin="round"/>
<path d="M239.11 217.096H277.09M315.07 217.096H277.09M277.09 217.096L277.11 381.596" stroke="#EFF0FF" stroke-width="15.19" stroke-linecap="round"/>
<path d="M347.07 381.692V299.442M347.07 299.442V217.192C399.573 216.249 423.03 217.192 423.03 258.317C423.03 296.192 402.663 300.511 347.07 299.442ZM347.07 299.442L381.57 300.692L423.03 381.692" stroke="#EFF0FF" stroke-width="15.1919" stroke-linecap="round" stroke-linejoin="round"/>
<path d="M455.03 217.057V381.635" stroke="#EFF0FF" stroke-width="15.1919" stroke-linecap="round" stroke-linejoin="round"/>
<path d="M559.03 217.1C467.842 216.143 458.335 391.222 559.03 381.18" stroke="#EFF0FF" stroke-width="15.1919" stroke-linecap="round"/>
<g clip-path="url(#clip1_30_165)" filter="url(#filter0_d_30_165)">
<g filter="url(#filter1_d_30_165)">
<path d="M621 381.576C630.44 386.961 640.891 390.772 652 392.656V513.5H843C851.56 513.5 858.5 520.44 858.5 529C858.5 537.56 851.56 544.5 843 544.5H638.5C628.835 544.5 621 536.665 621 527V381.576ZM636.5 113C645.06 113 652 119.94 652 128.5V205.343C640.892 207.227 630.44 211.039 621 216.423V128.5C621 119.94 627.94 113 636.5 113Z" fill="#EFF0FF"/>
<line x1="718" y1="301.5" x2="778" y2="301.5" stroke="#7CFF54" stroke-width="31"/>
<circle cx="668" cy="299" r="64.5" stroke="#7CFF54" stroke-width="31"/>
<path d="M928.368 30.0121C944.134 37.3744 958.388 47.5253 970.317 59.8636C982.245 72.2011 991.593 86.4604 997.864 101.796C1004.14 117.13 1007.21 133.232 1006.96 149.177C1006.77 162.126 1004.38 174.785 999.945 186.692L997.541 193.138L1001.7 198.618C1004.79 202.688 1006.36 205.77 1007 207.836C1007.2 208.489 1007.29 208.941 1007.32 209.231C1006.65 209.707 1004.56 210.871 999.12 211.49C991.434 212.364 980.303 211.682 966.158 209.063C938.058 203.86 900.877 191.553 861.517 173.173C822.156 154.793 788.851 134.186 766.823 115.98C755.734 106.816 748.066 98.7197 743.802 92.2657C740.779 87.6909 740.333 85.3436 740.271 84.5295C740.513 84.367 740.913 84.1392 741.544 83.875C743.539 83.0399 746.909 82.2657 752.014 82.0223L758.886 81.694L762.285 75.7133C768.564 64.6663 776.743 54.7138 786.544 46.249C798.614 35.8255 812.932 27.8443 828.714 22.8091C844.499 17.773 861.433 15.7859 878.55 17.0115C895.133 18.199 911.543 22.3766 926.887 29.33L928.368 30.0121Z" stroke="#7CFF54" stroke-width="25"/>
<path d="M916.5 219.25C927.368 222.795 937.761 225.753 947.5 228.081V528C947.5 536.561 940.56 543.5 932 543.5C923.439 543.5 916.5 536.56 916.5 528V219.25ZM731.782 113.5C737.343 119.952 744.377 126.62 752.49 133.324C756.933 136.996 761.764 140.731 766.944 144.5H718C709.439 144.5 702.5 137.56 702.5 129C702.5 120.44 709.439 113.5 718 113.5H731.782Z" fill="#EFF0FF"/>
<circle cx="843" cy="299" r="64.5" stroke="#7CFF54" stroke-width="31"/>
<mask id="path-13-inside-1_30_165" fill="white">
<path d="M923 391C923 406.823 918.308 422.29 909.518 435.446C900.727 448.602 888.233 458.855 873.615 464.91C858.997 470.965 842.911 472.55 827.393 469.463C811.874 466.376 797.62 458.757 786.431 447.569L807.645 426.355C814.637 433.348 823.546 438.11 833.245 440.039C842.945 441.969 852.998 440.978 862.134 437.194C871.27 433.41 879.079 427.001 884.573 418.779C890.068 410.556 893 400.889 893 391H923Z"/>
</mask>
<path d="M923 391C923 406.823 918.308 422.29 909.518 435.446C900.727 448.602 888.233 458.855 873.615 464.91C858.997 470.965 842.911 472.55 827.393 469.463C811.874 466.376 797.62 458.757 786.431 447.569L807.645 426.355C814.637 433.348 823.546 438.11 833.245 440.039C842.945 441.969 852.998 440.978 862.134 437.194C871.27 433.41 879.079 427.001 884.573 418.779C890.068 410.556 893 400.889 893 391H923Z" stroke="#7CFF54" stroke-width="62" mask="url(#path-13-inside-1_30_165)"/>
<path d="M908 293V391" stroke="#7CFF54" stroke-width="30" stroke-linejoin="round"/>
</g>
</g>
<path d="M59.24 437.408C62.344 437.408 64.696 438.624 66.296 441.056C67.896 443.456 68.696 446.848 68.696 451.232C68.696 453.856 68.28 456.208 67.448 458.288C66.648 460.368 65.464 462 63.896 463.184C62.36 464.368 60.536 464.96 58.424 464.96C57.048 464.96 55.784 464.672 54.632 464.096C53.512 463.552 52.568 462.784 51.8 461.792L51.464 464H43.016V428.288L52.52 427.328V440.624C53.224 439.664 54.184 438.896 55.4 438.32C56.616 437.712 57.896 437.408 59.24 437.408ZM55.544 458.192C56.632 458.192 57.464 457.664 58.04 456.608C58.648 455.552 58.952 453.76 58.952 451.232C58.952 448.48 58.68 446.624 58.136 445.664C57.624 444.704 56.872 444.224 55.88 444.224C54.568 444.224 53.448 445.024 52.52 446.624V456.32C53.256 457.568 54.264 458.192 55.544 458.192ZM87.7456 463.952C86.6576 467.504 84.8016 470.192 82.1776 472.016C79.5536 473.84 76.0976 474.816 71.8096 474.944L70.8016 468.464C73.2656 468.208 75.0896 467.76 76.2736 467.12C77.4896 466.48 78.4336 465.44 79.1056 464H75.8416L68.5456 438.368H78.6256L81.8416 458.192L85.8256 438.368H95.6176L87.7456 463.952Z" fill="#EFF0FF"/>
<path d="M504.006 504.77V459.885M504.006 459.885V423.747C504.006 418.916 507.922 415 512.753 415H522.42H532.088C536.917 415 540.835 418.916 540.835 423.747V459.885M504.006 459.885H540.835M540.835 504.77V459.885" stroke="#7293FC" stroke-width="8.28647" stroke-linecap="round" stroke-linejoin="round"/>
<path d="M559.068 415V504.77" stroke="#7293FC" stroke-width="8.28647" stroke-linecap="round" stroke-linejoin="round"/>
<path d="M381.51 415V504.77" stroke="#EFF0FF" stroke-width="8.28647" stroke-linecap="round" stroke-linejoin="round"/>
<path d="M314.694 504.77V415L339.553 440.38L364.413 415V504.77" stroke="#EFF0FF" stroke-width="8.28647" stroke-linecap="round" stroke-linejoin="round"/>
<path d="M178.959 415.002C111.886 414.478 104.894 510.266 178.959 504.772" stroke="#EFF0FF" stroke-width="8.28647" stroke-linecap="round"/>
<path d="M451.792 415.002C384.719 414.478 377.727 510.266 451.792 504.772" stroke="#EFF0FF" stroke-width="8.28647" stroke-linecap="round"/>
<path d="M196.528 415V459.885M196.528 459.885V504.77M196.528 459.885H238.421M238.421 459.885V415M238.421 459.885V504.77" stroke="#EFF0FF" stroke-width="8.28647" stroke-linecap="round"/>
<path d="M297.353 415H255.92V458.468M255.92 458.468H271.112M255.92 458.468V504.77H297.353" stroke="#EFF0FF" stroke-width="8.28647" stroke-linecap="round" stroke-linejoin="round"/>
</g>
<defs>
<filter id="filter0_d_30_165" x="584" y="-3" width="443" height="552" filterUnits="userSpaceOnUse" color-interpolation-filters="sRGB">
<feFlood flood-opacity="0" result="BackgroundImageFix"/>
<feColorMatrix in="SourceAlpha" type="matrix" values="0 0 0 0 0 0 0 0 0 0 0 0 0 0 0 0 0 0 127 0" result="hardAlpha"/>
<feOffset/>
<feGaussianBlur stdDeviation="2"/>
<feComposite in2="hardAlpha" operator="out"/>
<feColorMatrix type="matrix" values="0 0 0 0 0 0 0 0 0 0 0 0 0 0 0 0 0 0 0.25 0"/>
<feBlend mode="normal" in2="BackgroundImageFix" result="effect1_dropShadow_30_165"/>
<feBlend mode="normal" in="SourceGraphic" in2="effect1_dropShadow_30_165" result="shape"/>
</filter>
<filter id="filter1_d_30_165" x="584" y="4.15955" width="439.834" height="548.34" filterUnits="userSpaceOnUse" color-interpolation-filters="sRGB">
<feFlood flood-opacity="0" result="BackgroundImageFix"/>
<feColorMatrix in="SourceAlpha" type="matrix" values="0 0 0 0 0 0 0 0 0 0 0 0 0 0 0 0 0 0 127 0" result="hardAlpha"/>
<feOffset dy="4"/>
<feGaussianBlur stdDeviation="2"/>
<feComposite in2="hardAlpha" operator="out"/>
<feColorMatrix type="matrix" values="0 0 0 0 0 0 0 0 0 0 0 0 0 0 0 0 0 0 0.25 0"/>
<feBlend mode="normal" in2="BackgroundImageFix" result="effect1_dropShadow_30_165"/>
<feBlend mode="normal" in="SourceGraphic" in2="effect1_dropShadow_30_165" result="shape"/>
</filter>
<clipPath id="clip0_30_165">
<rect width="1024" height="549" fill="white"/>
</clipPath>
<clipPath id="clip1_30_165">
<rect width="435" height="544" fill="white" transform="translate(588 1)"/>
</clipPath>
</defs>
</svg>
